<mxfile host="app.diagrams.net" modified="2023-01-07T17:29:53.141Z" agent="5.0 (Windows NT 10.0; Win64; x64) AppleWebKit/537.36 (KHTML, like Gecko) Chrome/108.0.0.0 Safari/537.36" etag="xxk9nuA-_HV0lc9gyrh-" version="20.6.2" type="github">
  <diagram name="Page-1" id="03018318-947c-dd8e-b7a3-06fadd420f32">
    <mxGraphModel dx="1422" dy="832" grid="1" gridSize="10" guides="1" tooltips="1" connect="1" arrows="1" fold="1" page="1" pageScale="1" pageWidth="1100" pageHeight="850" background="#ffffff" math="0" shadow="0">
      <root>
        <mxCell id="0" />
        <mxCell id="1" parent="0" />
        <mxCell id="677b7b8949515195-1" value="" style="whiteSpace=wrap;html=1;rounded=0;shadow=0;labelBackgroundColor=none;strokeColor=#000000;strokeWidth=1;fillColor=none;fontFamily=Verdana;fontSize=12;fontColor=#000000;align=center;comic=1;" parent="1" vertex="1">
          <mxGeometry x="20" y="20" width="1060" height="810" as="geometry" />
        </mxCell>
        <mxCell id="677b7b8949515195-2" value="LOGO" style="whiteSpace=wrap;html=1;rounded=0;shadow=0;labelBackgroundColor=none;strokeWidth=1;fontFamily=Verdana;fontSize=28;align=center;comic=1;" parent="1" vertex="1">
          <mxGeometry x="40" y="60" width="190" height="50" as="geometry" />
        </mxCell>
        <mxCell id="677b7b8949515195-4" value="Profile" style="text;html=1;points=[];align=left;verticalAlign=top;spacingTop=-4;fontSize=14;fontFamily=Verdana" parent="1" vertex="1">
          <mxGeometry x="780" y="40" width="60" height="20" as="geometry" />
        </mxCell>
        <mxCell id="677b7b8949515195-5" value="Youtube" style="text;html=1;points=[];align=left;verticalAlign=top;spacingTop=-4;fontSize=14;fontFamily=Verdana" parent="1" vertex="1">
          <mxGeometry x="880" y="40" width="60" height="20" as="geometry" />
        </mxCell>
        <mxCell id="677b7b8949515195-6" value="Twitter" style="text;html=1;points=[];align=left;verticalAlign=top;spacingTop=-4;fontSize=14;fontFamily=Verdana" parent="1" vertex="1">
          <mxGeometry x="980" y="40" width="60" height="20" as="geometry" />
        </mxCell>
        <mxCell id="677b7b8949515195-8" value="" style="whiteSpace=wrap;html=1;rounded=0;shadow=0;labelBackgroundColor=none;strokeWidth=1;fillColor=none;fontFamily=Verdana;fontSize=12;align=center;comic=1;" parent="1" vertex="1">
          <mxGeometry x="30" y="30" width="530" height="790" as="geometry" />
        </mxCell>
        <mxCell id="677b7b8949515195-25" value="" style="whiteSpace=wrap;html=1;rounded=0;shadow=0;labelBackgroundColor=none;strokeWidth=1;fillColor=none;fontFamily=Verdana;fontSize=12;align=center;comic=1;" parent="1" vertex="1">
          <mxGeometry x="640" y="160" width="360" height="670" as="geometry" />
        </mxCell>
        <mxCell id="677b7b8949515195-44" value="Blog1" style="text;html=1;points=[];align=left;verticalAlign=top;spacingTop=-4;fontSize=14;fontFamily=Verdana" parent="1" vertex="1">
          <mxGeometry x="885" y="270" width="50" height="20" as="geometry" />
        </mxCell>
        <mxCell id="677b7b8949515195-45" value="Blog2" style="text;html=1;points=[];align=left;verticalAlign=top;spacingTop=-4;fontSize=14;fontFamily=Verdana" parent="1" vertex="1">
          <mxGeometry x="705" y="410" width="50" height="20" as="geometry" />
        </mxCell>
        <mxCell id="yQfPVELV_SA6GiFr4s77-4" value="" style="whiteSpace=wrap;html=1;rounded=0;shadow=0;labelBackgroundColor=none;strokeWidth=1;fillColor=none;fontFamily=Verdana;fontSize=12;align=center;comic=1;" vertex="1" parent="1">
          <mxGeometry x="120" y="320" width="360" height="200" as="geometry" />
        </mxCell>
        <mxCell id="yQfPVELV_SA6GiFr4s77-6" value="&lt;div style=&quot;&quot;&gt;&lt;span style=&quot;background-color: initial;&quot;&gt;&lt;font style=&quot;font-size: 30px;&quot;&gt;Site Title&lt;/font&gt;&lt;/span&gt;&lt;br&gt;&lt;/div&gt;" style="text;html=1;points=[];align=center;verticalAlign=top;spacingTop=-4;fontSize=14;fontFamily=Verdana;fontStyle=1" vertex="1" parent="1">
          <mxGeometry x="200" y="400" width="190" height="40" as="geometry" />
        </mxCell>
        <mxCell id="yQfPVELV_SA6GiFr4s77-9" value="&lt;font style=&quot;font-size: 16px;&quot;&gt;左半分背景固定&lt;/font&gt;" style="shape=callout;whiteSpace=wrap;html=1;perimeter=calloutPerimeter;fontSize=30;" vertex="1" parent="1">
          <mxGeometry x="410" y="80" width="120" height="80" as="geometry" />
        </mxCell>
        <mxCell id="yQfPVELV_SA6GiFr4s77-12" value="date:YYYY/MM/DD" style="text;html=1;points=[];align=left;verticalAlign=top;spacingTop=-4;fontSize=14;fontFamily=Verdana" vertex="1" parent="1">
          <mxGeometry x="840" y="230" width="140" height="20" as="geometry" />
        </mxCell>
        <mxCell id="yQfPVELV_SA6GiFr4s77-18" value="date:YYYY/MM/DD" style="text;html=1;points=[];align=left;verticalAlign=top;spacingTop=-4;fontSize=14;fontFamily=Verdana" vertex="1" parent="1">
          <mxGeometry x="670" y="370" width="170" height="20" as="geometry" />
        </mxCell>
        <mxCell id="yQfPVELV_SA6GiFr4s77-25" value="サムネ" style="whiteSpace=wrap;html=1;rounded=0;shadow=0;labelBackgroundColor=none;strokeWidth=1;fillColor=none;fontFamily=Verdana;fontSize=12;align=center;comic=1;" vertex="1" parent="1">
          <mxGeometry x="650" y="200" width="170" height="110" as="geometry" />
        </mxCell>
        <mxCell id="yQfPVELV_SA6GiFr4s77-26" style="edgeStyle=orthogonalEdgeStyle;rounded=0;orthogonalLoop=1;jettySize=auto;html=1;exitX=0.5;exitY=1;exitDx=0;exitDy=0;fontSize=16;" edge="1" parent="1" source="677b7b8949515195-25" target="677b7b8949515195-25">
          <mxGeometry relative="1" as="geometry" />
        </mxCell>
        <mxCell id="yQfPVELV_SA6GiFr4s77-27" value="サムネ" style="whiteSpace=wrap;html=1;rounded=0;shadow=0;labelBackgroundColor=none;strokeWidth=1;fillColor=none;fontFamily=Verdana;fontSize=12;align=center;comic=1;" vertex="1" parent="1">
          <mxGeometry x="820" y="350" width="170" height="110" as="geometry" />
        </mxCell>
        <mxCell id="yQfPVELV_SA6GiFr4s77-29" value="サムネ" style="whiteSpace=wrap;html=1;rounded=0;shadow=0;labelBackgroundColor=none;strokeWidth=1;fillColor=none;fontFamily=Verdana;fontSize=12;align=center;comic=1;" vertex="1" parent="1">
          <mxGeometry x="650" y="500" width="170" height="110" as="geometry" />
        </mxCell>
        <mxCell id="yQfPVELV_SA6GiFr4s77-30" value="date:YYYY/MM/DD" style="text;html=1;points=[];align=left;verticalAlign=top;spacingTop=-4;fontSize=14;fontFamily=Verdana" vertex="1" parent="1">
          <mxGeometry x="840" y="530" width="140" height="20" as="geometry" />
        </mxCell>
        <mxCell id="yQfPVELV_SA6GiFr4s77-31" value="Blog3" style="text;html=1;points=[];align=left;verticalAlign=top;spacingTop=-4;fontSize=14;fontFamily=Verdana" vertex="1" parent="1">
          <mxGeometry x="885" y="570" width="50" height="20" as="geometry" />
        </mxCell>
        <mxCell id="yQfPVELV_SA6GiFr4s77-32" value="date:YYYY/MM/DD" style="text;html=1;points=[];align=left;verticalAlign=top;spacingTop=-4;fontSize=14;fontFamily=Verdana" vertex="1" parent="1">
          <mxGeometry x="670" y="680" width="170" height="20" as="geometry" />
        </mxCell>
        <mxCell id="yQfPVELV_SA6GiFr4s77-33" value="Blog4" style="text;html=1;points=[];align=left;verticalAlign=top;spacingTop=-4;fontSize=14;fontFamily=Verdana" vertex="1" parent="1">
          <mxGeometry x="705" y="720" width="50" height="20" as="geometry" />
        </mxCell>
        <mxCell id="yQfPVELV_SA6GiFr4s77-34" value="サムネ" style="whiteSpace=wrap;html=1;rounded=0;shadow=0;labelBackgroundColor=none;strokeWidth=1;fillColor=none;fontFamily=Verdana;fontSize=12;align=center;comic=1;" vertex="1" parent="1">
          <mxGeometry x="820" y="660" width="170" height="110" as="geometry" />
        </mxCell>
      </root>
    </mxGraphModel>
  </diagram>
</mxfile>
